<svg width="26" height="18" viewBox="0 0 26 18" fill="none" xmlns="http://www.w3.org/2000/svg">
<g clip-path="url(#clip0_516_175)">
<path d="M1 1L25 1L25 17L1 17L1 1Z" fill="white"/>
<path d="M4.68005 5.8567L6.90005 2.53003L7.45339 2.90003L5.23339 6.2267L4.68005 5.8567ZM5.51339 6.41003L7.73339 3.08336L8.28672 3.45336L6.06672 6.78003L5.51339 6.41003ZM6.34672 6.96336L8.56672 3.6367L9.12005 4.0067L6.90005 7.33336L6.34672 6.96336Z" fill="black"/>
<path d="M21.32 12.1433L20.3033 13.67L19.75 13.3L20.7666 11.7733L21.32 12.1433ZM19.6566 11.0333L19.1033 10.6633L18.0866 12.19L18.64 12.56L19.6566 11.0333ZM19.4733 13.1133L20.49 11.5867L19.9366 11.2167L18.92 12.7433L19.4733 13.1133ZM17.9 12.4667L16.8833 13.9933L17.4366 14.3633L18.4533 12.8367L17.9 12.4667ZM18.5466 15.1L19.1 15.47L20.1166 13.9433L19.5633 13.5733L18.5466 15.1ZM18.73 13.02L17.7133 14.5467L18.2666 14.9167L19.2833 13.39L18.73 13.02Z" fill="black"/>
<path d="M9.67334 6.78001C10.9 4.94335 13.3833 4.44668 15.22 5.67001C17.0567 6.89335 17.5533 9.38001 16.33 11.2167L9.67334 6.78001Z" fill="#CD2E3A"/>
<path d="M9.67332 6.78001C8.44666 8.61667 8.94332 11.1 10.7833 12.3267C12.6233 13.5533 15.1033 13.0567 16.33 11.2167C16.9433 10.2967 16.6933 9.05667 15.7767 8.44334C14.86 7.83001 13.6167 8.08001 13.0033 8.99667L9.67666 6.77667L9.67332 6.78001Z" fill="#0047A0"/>
<path d="M11.3367 9.89001C12.4412 9.89001 13.3367 8.99458 13.3367 7.89001C13.3367 6.78545 12.4412 5.89001 11.3367 5.89001C10.2321 5.89001 9.33667 6.78545 9.33667 7.89001C9.33667 8.99458 10.2321 9.89001 11.3367 9.89001Z" fill="#CD2E3A"/>
<path d="M17.9 5.53334L16.8833 4.00667L17.4366 3.63667L18.4533 5.16334L17.9 5.53334ZM20.12 4.05334L19.1033 2.52667L18.55 2.89667L19.5666 4.42334L20.12 4.05334ZM18.0866 5.81001L19.1033 7.33667L19.6566 6.96667L18.64 5.44001L18.0866 5.81001ZM20.3066 4.33001L19.7533 4.70001L20.77 6.22667L21.3233 5.85667L20.3066 4.33001ZM17.7166 3.45334L19.9366 6.78001L20.49 6.41001L18.27 3.08334L17.7166 3.45334Z" fill="black"/>
<path d="M6.53005 13.1133L5.51339 11.5867L6.06672 11.2167L7.08339 12.7433L6.53005 13.1133ZM4.68005 12.1433L6.90005 15.47L7.45339 15.1L5.23339 11.7733L4.68005 12.1433ZM6.90005 10.6633L6.34672 11.0333L8.56672 14.36L9.12005 13.99L6.90005 10.6633ZM6.71672 13.39L7.73339 14.9167L8.28672 14.5467L7.27005 13.02L6.71672 13.39Z" fill="black"/>
</g>
<rect x="0.5" y="0.5" width="25" height="17" rx="2.5" stroke="#D4D4D4" stroke-linecap="round"/>
<defs>
<clipPath id="clip0_516_175">
<rect x="1" y="1" width="24" height="16" rx="2" fill="white"/>
</clipPath>
</defs>
</svg>
