<svg width="26" height="18" viewBox="0 0 26 18" fill="none" xmlns="http://www.w3.org/2000/svg">
<g clip-path="url(#clip0_228_12077)">
<path d="M1 1H25V17H1" fill="#B31942"/>
<path d="M1 2.84615H25H1ZM25 5.30769H1H25ZM1 7.76923H25H1ZM25 10.2308H1H25ZM1 12.6923H25H1ZM25 15.1538H1H25Z" fill="black"/>
<path fill-rule="evenodd" clip-rule="evenodd" d="M25 3.46154H1V2.23077H25V3.46154ZM1 4.6923H25V5.92307H1V4.6923ZM25 8.38461H1V7.15384H25V8.38461ZM1 9.61538H25V10.8462H1V9.61538ZM25 13.3077H1V12.0769H25V13.3077ZM1 14.5385H25V15.7692H1V14.5385Z" fill="white"/>
<path d="M1 1H13.2247V9.61538H1" fill="#0A3161"/>
<path d="M2.01868 1.36923L2.30959 2.25983L1.54797 1.70941H2.48938L1.72777 2.25983L2.01868 1.36923Z" fill="white"/>
<path d="M2.01868 3.09231L2.30959 3.9829L1.54797 3.43248H2.48938L1.72777 3.9829L2.01868 3.09231Z" fill="white"/>
<path d="M2.01868 4.81538L2.30959 5.70598L1.54797 5.15556H2.48938L1.72777 5.70598L2.01868 4.81538Z" fill="white"/>
<path d="M2.01868 6.53846L2.30959 7.42905L1.54797 6.87864H2.48938L1.72777 7.42905L2.01868 6.53846Z" fill="white"/>
<path d="M2.01868 8.26154L2.30959 9.15214L1.54797 8.60172H2.48938L1.72777 9.15214L2.01868 8.26154Z" fill="white"/>
<path d="M3.03735 2.23077L3.32827 3.12137L2.56665 2.57095H3.50806L2.74644 3.12137L3.03735 2.23077Z" fill="white"/>
<path d="M3.03735 3.95385L3.32827 4.84444L2.56665 4.29403H3.50806L2.74644 4.84444L3.03735 3.95385Z" fill="white"/>
<path d="M3.03735 5.67693L3.32827 6.56752L2.56665 6.0171H3.50806L2.74644 6.56752L3.03735 5.67693Z" fill="white"/>
<path d="M3.03735 7.4L3.32827 8.29059L2.56665 7.74018H3.50806L2.74644 8.29059L3.03735 7.4Z" fill="white"/>
<path d="M4.05615 1.36923L4.34707 2.25983L3.58545 1.70941H4.52686L3.76524 2.25983L4.05615 1.36923Z" fill="white"/>
<path d="M4.05615 3.09231L4.34707 3.9829L3.58545 3.43248H4.52686L3.76524 3.9829L4.05615 3.09231Z" fill="white"/>
<path d="M4.05615 4.81538L4.34707 5.70598L3.58545 5.15556H4.52686L3.76524 5.70598L4.05615 4.81538Z" fill="white"/>
<path d="M4.05615 6.53846L4.34707 7.42905L3.58545 6.87864H4.52686L3.76524 7.42905L4.05615 6.53846Z" fill="white"/>
<path d="M4.05615 8.26154L4.34707 9.15214L3.58545 8.60172H4.52686L3.76524 9.15214L4.05615 8.26154Z" fill="white"/>
<path d="M5.07483 2.23077L5.36574 3.12137L4.60413 2.57095H5.54553L4.78392 3.12137L5.07483 2.23077Z" fill="white"/>
<path d="M5.07483 3.95385L5.36574 4.84444L4.60413 4.29403H5.54553L4.78392 4.84444L5.07483 3.95385Z" fill="white"/>
<path d="M5.07483 5.67693L5.36574 6.56752L4.60413 6.0171H5.54553L4.78392 6.56752L5.07483 5.67693Z" fill="white"/>
<path d="M5.07483 7.4L5.36574 8.29059L4.60413 7.74018H5.54553L4.78392 8.29059L5.07483 7.4Z" fill="white"/>
<path d="M6.09363 1.36923L6.38454 2.25983L5.62292 1.70941H6.56433L5.80272 2.25983L6.09363 1.36923Z" fill="white"/>
<path d="M6.09363 3.09231L6.38454 3.9829L5.62292 3.43248H6.56433L5.80272 3.9829L6.09363 3.09231Z" fill="white"/>
<path d="M6.09363 4.81538L6.38454 5.70598L5.62292 5.15556H6.56433L5.80272 5.70598L6.09363 4.81538Z" fill="white"/>
<path d="M6.09363 6.53846L6.38454 7.42905L5.62292 6.87864H6.56433L5.80272 7.42905L6.09363 6.53846Z" fill="white"/>
<path d="M6.09363 8.26154L6.38454 9.15214L5.62292 8.60172H6.56433L5.80272 9.15214L6.09363 8.26154Z" fill="white"/>
<path d="M7.11231 2.23077L7.40322 3.12137L6.6416 2.57095H7.58301L6.82139 3.12137L7.11231 2.23077Z" fill="white"/>
<path d="M7.11231 3.95385L7.40322 4.84444L6.6416 4.29403H7.58301L6.82139 4.84444L7.11231 3.95385Z" fill="white"/>
<path d="M7.11231 5.67693L7.40322 6.56752L6.6416 6.0171H7.58301L6.82139 6.56752L7.11231 5.67693Z" fill="white"/>
<path d="M7.11231 7.4L7.40322 8.29059L6.6416 7.74018H7.58301L6.82139 8.29059L7.11231 7.4Z" fill="white"/>
<path d="M8.1311 1.36923L8.42202 2.25983L7.6604 1.70941H8.60181L7.84019 2.25983L8.1311 1.36923Z" fill="white"/>
<path d="M8.1311 3.09231L8.42202 3.9829L7.6604 3.43248H8.60181L7.84019 3.9829L8.1311 3.09231Z" fill="white"/>
<path d="M8.1311 4.81538L8.42202 5.70598L7.6604 5.15556H8.60181L7.84019 5.70598L8.1311 4.81538Z" fill="white"/>
<path d="M8.1311 6.53846L8.42202 7.42905L7.6604 6.87864H8.60181L7.84019 7.42905L8.1311 6.53846Z" fill="white"/>
<path d="M8.1311 8.26154L8.42202 9.15214L7.6604 8.60172H8.60181L7.84019 9.15214L8.1311 8.26154Z" fill="white"/>
<path d="M9.14978 2.23077L9.44069 3.12137L8.67908 2.57095H9.62049L8.85887 3.12137L9.14978 2.23077Z" fill="white"/>
<path d="M9.14978 3.95385L9.44069 4.84444L8.67908 4.29403H9.62049L8.85887 4.84444L9.14978 3.95385Z" fill="white"/>
<path d="M9.14978 5.67693L9.44069 6.56752L8.67908 6.0171H9.62049L8.85887 6.56752L9.14978 5.67693Z" fill="white"/>
<path d="M9.14978 7.4L9.44069 8.29059L8.67908 7.74018H9.62049L8.85887 8.29059L9.14978 7.4Z" fill="white"/>
<path d="M10.1685 1.36923L10.4594 2.25983L9.69775 1.70941H10.6392L9.87755 2.25983L10.1685 1.36923Z" fill="white"/>
<path d="M10.1685 3.09231L10.4594 3.9829L9.69775 3.43248H10.6392L9.87755 3.9829L10.1685 3.09231Z" fill="white"/>
<path d="M10.1685 4.81538L10.4594 5.70598L9.69775 5.15556H10.6392L9.87755 5.70598L10.1685 4.81538Z" fill="white"/>
<path d="M10.1685 6.53846L10.4594 7.42905L9.69775 6.87864H10.6392L9.87755 7.42905L10.1685 6.53846Z" fill="white"/>
<path d="M10.1685 8.26154L10.4594 9.15214L9.69775 8.60172H10.6392L9.87755 9.15214L10.1685 8.26154Z" fill="white"/>
<path d="M11.1871 2.23077L11.478 3.12137L10.7164 2.57095H11.6578L10.8962 3.12137L11.1871 2.23077Z" fill="white"/>
<path d="M11.1871 3.95385L11.478 4.84444L10.7164 4.29403H11.6578L10.8962 4.84444L11.1871 3.95385Z" fill="white"/>
<path d="M11.1871 5.67693L11.478 6.56752L10.7164 6.0171H11.6578L10.8962 6.56752L11.1871 5.67693Z" fill="white"/>
<path d="M11.1871 7.4L11.478 8.29059L10.7164 7.74018H11.6578L10.8962 8.29059L11.1871 7.4Z" fill="white"/>
<path d="M12.2059 1.36923L12.4968 2.25983L11.7352 1.70941H12.6766L11.915 2.25983L12.2059 1.36923Z" fill="white"/>
<path d="M12.2059 3.09231L12.4968 3.9829L11.7352 3.43248H12.6766L11.915 3.9829L12.2059 3.09231Z" fill="white"/>
<path d="M12.2059 4.81538L12.4968 5.70598L11.7352 5.15556H12.6766L11.915 5.70598L12.2059 4.81538Z" fill="white"/>
<path d="M12.2059 6.53846L12.4968 7.42905L11.7352 6.87864H12.6766L11.915 7.42905L12.2059 6.53846Z" fill="white"/>
<path d="M12.2059 8.26154L12.4968 9.15214L11.7352 8.60172H12.6766L11.915 9.15214L12.2059 8.26154Z" fill="white"/>
</g>
<rect x="0.5" y="0.5" width="25" height="17" rx="2.5" stroke="#E5E5E5" stroke-linecap="round"/>
<defs>
<clipPath id="clip0_228_12077">
<rect x="1" y="1" width="24" height="16" rx="2" fill="white"/>
</clipPath>
</defs>
</svg>
