<svg width="132" height="88" viewBox="0 0 132 88" fill="none" xmlns="http://www.w3.org/2000/svg">
<rect width="132" height="88" rx="10" fill="#8459FF"/>
<g clip-path="url(#clip0_328_2743)">
<path d="M27.8958 32H34.4364L28.9421 48.4618C28.6965 49.1976 28.5737 49.5655 28.647 49.8583C28.7113 50.1147 28.8711 50.3367 29.0937 50.4789C29.348 50.6413 29.7356 50.6413 30.5108 50.6413H38.387L37.0903 54.5263C36.9546 54.9328 36.8867 55.1362 36.761 55.2864C36.65 55.4192 36.5075 55.5219 36.3465 55.5852C36.1642 55.657 35.95 55.657 35.5216 55.657H22.2962C21.521 55.657 21.1334 55.657 20.8791 55.4946C20.6565 55.3524 20.4966 55.1304 20.4324 54.8741C20.3591 54.5811 20.4819 54.2132 20.7275 53.4775L23.9479 43.8285L25.9219 37.9142L26.9088 34.9571C27.1846 34.131 26.7597 33.2344 25.9461 32.9252L23.5137 32.0008L27.8958 32ZM67.0808 32L62.0095 47.1941C61.4209 48.9585 60.4587 50.4997 59.1238 51.8175C57.8006 53.1355 56.204 54.1539 54.3346 54.8728C52.4692 55.5808 50.4805 55.9348 48.3693 55.9348C46.2463 55.9348 44.4999 55.5808 43.1296 54.8728C41.7631 54.1539 40.8524 53.1355 40.3972 51.8175C39.9535 50.4997 40.0261 48.9585 40.615 47.1941L43.1505 39.597L44.4185 35.7985C44.4786 35.618 44.5088 35.5278 44.5286 35.447C44.7459 34.5659 44.3641 33.646 43.5869 33.1783C43.5156 33.1354 43.4306 33.0931 43.2603 33.0084L41.2334 32.0008L45.6862 32H52.2267L47.3356 46.6549C47.0848 47.4064 47.0389 48.0763 47.1983 48.6645C47.3579 49.2526 47.6912 49.7155 48.1979 50.0532C48.7164 50.3908 49.3714 50.5596 50.1632 50.5596C50.9664 50.5596 51.74 50.3908 52.4839 50.0532C53.2389 49.7155 53.887 49.2526 54.4274 48.6645C54.9681 48.0763 55.3638 47.4064 55.6145 46.6549L60.1285 33.1308C60.2642 32.7241 60.332 32.5208 60.4579 32.3705C60.5689 32.2378 60.7113 32.135 60.8724 32.0717C61.0545 32 61.2687 32 61.6973 32H67.0808ZM82.1906 55.657H77.8291C77.4216 55.657 77.2178 55.657 77.0421 55.591C76.8868 55.5324 76.7477 55.4374 76.6369 55.3139C76.5114 55.1743 76.4371 54.9843 76.2887 54.6045L71.7472 42.9775C71.7282 42.9291 71.6817 42.8973 71.6298 42.8973C71.5783 42.8973 71.5326 42.9302 71.5163 42.979L67.2851 55.657H63.0407C62.2656 55.657 61.878 55.657 61.6237 55.4946C61.401 55.3524 61.2412 55.1304 61.1769 54.8741C61.1035 54.5811 61.2263 54.2132 61.472 53.4775L68.263 33.1308C68.3986 32.7242 68.4664 32.5208 68.5921 32.3705C68.7031 32.2378 68.8458 32.135 69.0066 32.0717C69.189 32 69.4032 32 69.8317 32H74.2343L79.0555 44.6326C79.0772 44.6895 79.1316 44.7271 79.1924 44.7271C79.2556 44.7271 79.3117 44.6867 79.3315 44.6268L83.1684 33.1308C83.3041 32.7242 83.3719 32.5208 83.4976 32.3705C83.6086 32.2378 83.7512 32.135 83.9123 32.0717C84.0944 32 84.3086 32 84.7372 32H90.0864L82.1906 55.657Z" fill="white"/>
<path d="M86.1143 55.6238C85.3403 55.6238 84.9532 55.6238 84.6992 55.4616C84.4765 55.3197 84.3167 55.0979 84.2524 54.842C84.1786 54.5494 84.3008 54.182 84.5447 53.4469L91.2791 33.1584C91.4143 32.7509 91.4819 32.5471 91.6076 32.3965C91.7187 32.2634 91.8613 32.1604 92.0224 32.0969C92.2049 32.025 92.4195 32.025 92.8487 32.025H100.075L103.991 43.8244L105.95 49.7241L106.929 52.6739C107.089 53.1582 107.17 53.4003 107.298 53.607C107.465 53.8762 107.691 54.1036 107.959 54.2716C108.165 54.4005 108.407 54.4818 108.89 54.6446L111.798 55.6242L107.908 55.6238H102.44C102.001 55.6238 101.781 55.6238 101.595 55.5489C101.431 55.4829 101.286 55.3758 101.176 55.238C101.05 55.082 100.986 54.8714 100.858 54.4501L95.999 38.4582C95.9823 38.4027 95.931 38.3647 95.8731 38.3647C95.815 38.3647 95.764 38.4026 95.747 38.4581L90.5152 55.6238H86.1143ZM98.3821 46.3016L99.8033 50.9789H92.5508L93.9773 46.3016H98.3821Z" fill="white"/>
<path d="M97.9075 46.3035C98.1431 46.3046 98.3127 46.0776 98.2449 45.8518L98.2072 45.7263L98.383 46.3035H97.9075Z" fill="white"/>
</g>
<defs>
<clipPath id="clip0_328_2743">
<rect width="92" height="24" fill="white" transform="translate(20 32)"/>
</clipPath>
</defs>
</svg>
