<svg width="298" height="72" viewBox="0 0 298 72" fill="none" xmlns="http://www.w3.org/2000/svg">
<rect y="3.5" width="64" height="64" rx="10" fill="white"/>
<rect x="10" y="13.5" width="44" height="20" rx="6.875" fill="#0088FF"/>
<rect x="10" y="37.5" width="44" height="20" rx="6.875" fill="#0088FF"/>
<path d="M117.707 59H110.707V53.2C109.418 55.2 107.774 56.7333 105.774 57.8C103.774 58.8667 101.485 59.4 98.907 59.4C95.7515 59.4 92.8848 58.6444 90.307 57.1333C87.7737 55.6222 85.7737 53.4889 84.307 50.7333C82.8404 47.9778 82.107 44.8222 82.107 41.2667C82.107 37.6667 82.8404 34.4889 84.307 31.7333C85.7737 28.9778 87.7737 26.8444 90.307 25.3333C92.8848 23.8222 95.7515 23.0667 98.907 23.0667C101.351 23.0667 103.551 23.6 105.507 24.6667C107.507 25.6889 109.129 27.1556 110.374 29.0667V9.53333H117.707V59ZM100.107 53C102.063 53 103.818 52.5111 105.374 51.5333C106.974 50.5556 108.218 49.1778 109.107 47.4C110.04 45.6222 110.507 43.5778 110.507 41.2667C110.507 38.9111 110.04 36.8444 109.107 35.0667C108.218 33.2889 106.974 31.9333 105.374 31C103.818 30.0222 102.063 29.5333 100.107 29.5333C97.0404 29.5333 94.507 30.6 92.507 32.7333C90.5515 34.8667 89.5737 37.7111 89.5737 41.2667C89.5737 44.7778 90.5515 47.6222 92.507 49.8C94.507 51.9333 97.0404 53 100.107 53ZM157.177 41.2667C157.133 41.9333 157.088 42.6222 157.044 43.3333H130.311C130.666 46.3111 131.866 48.6889 133.911 50.4667C135.955 52.2444 138.533 53.1333 141.644 53.1333C145.466 53.1333 148.577 51.7778 150.977 49.0667L154.977 53.6C151.866 57.4667 147.355 59.4 141.444 59.4C137.8 59.4 134.577 58.6222 131.777 57.0667C128.977 55.5111 126.8 53.3556 125.244 50.6C123.688 47.8444 122.911 44.7333 122.911 41.2667C122.911 37.8 123.666 34.6889 125.177 31.9333C126.688 29.1333 128.755 26.9556 131.377 25.4C134 23.8444 136.955 23.0667 140.244 23.0667C143.4 23.0667 146.266 23.8222 148.844 25.3333C151.422 26.8444 153.444 28.9778 154.911 31.7333C156.422 34.4889 157.177 37.6667 157.177 41.2667ZM140.244 29.0667C137.533 29.0667 135.266 29.9556 133.444 31.7333C131.622 33.4667 130.555 35.7556 130.244 38.6H150.311C149.955 35.7556 148.866 33.4667 147.044 31.7333C145.222 29.9556 142.955 29.0667 140.244 29.0667ZM181.312 23.0667C184.423 23.0667 187.245 23.8444 189.778 25.4C192.312 26.9111 194.312 29.0444 195.778 31.8C197.245 34.5556 197.978 37.7111 197.978 41.2667C197.978 44.8222 197.245 47.9778 195.778 50.7333C194.312 53.4889 192.312 55.6222 189.778 57.1333C187.245 58.6444 184.423 59.4 181.312 59.4C178.823 59.4 176.578 58.8889 174.578 57.8667C172.623 56.8444 171.023 55.3778 169.778 53.4667V71.9333H162.378V23.5333H169.445V29.3333C170.689 27.2889 172.312 25.7333 174.312 24.6667C176.356 23.6 178.689 23.0667 181.312 23.0667ZM180.112 53C182.112 53 183.889 52.5333 185.445 51.6C187.045 50.6222 188.289 49.2444 189.178 47.4667C190.112 45.6889 190.578 43.6222 190.578 41.2667C190.578 38.9556 190.112 36.9111 189.178 35.1333C188.289 33.3556 187.045 31.9778 185.445 31C183.845 30.0222 182.067 29.5333 180.112 29.5333C178.112 29.5333 176.312 30.0222 174.712 31C173.156 31.9778 171.912 33.3556 170.978 35.1333C170.089 36.9111 169.645 38.9556 169.645 41.2667C169.645 44.8222 170.623 47.6667 172.578 49.8C174.534 51.9333 177.045 53 180.112 53ZM210.59 9.53333V59H203.19V9.53333H210.59ZM233.748 59.4C230.326 59.4 227.259 58.6222 224.548 57.0667C221.837 55.5111 219.703 53.3556 218.148 50.6C216.592 47.8444 215.815 44.7333 215.815 41.2667C215.815 37.7556 216.592 34.6222 218.148 31.8667C219.703 29.1111 221.837 26.9556 224.548 25.4C227.259 23.8444 230.326 23.0667 233.748 23.0667C237.17 23.0667 240.237 23.8444 242.948 25.4C245.659 26.9556 247.77 29.1111 249.281 31.8667C250.837 34.6222 251.615 37.7556 251.615 41.2667C251.615 44.7333 250.837 47.8444 249.281 50.6C247.77 53.3556 245.659 55.5111 242.948 57.0667C240.237 58.6222 237.17 59.4 233.748 59.4ZM233.748 53C235.748 53 237.526 52.5111 239.081 51.5333C240.681 50.5556 241.926 49.1778 242.815 47.4C243.748 45.6222 244.215 43.5778 244.215 41.2667C244.215 37.7111 243.237 34.8667 241.281 32.7333C239.326 30.6 236.815 29.5333 233.748 29.5333C231.748 29.5333 229.948 30.0222 228.348 31C226.792 31.9333 225.548 33.2889 224.615 35.0667C223.726 36.8444 223.281 38.9111 223.281 41.2667C223.281 43.5778 223.726 45.6222 224.615 47.4C225.548 49.1778 226.815 50.5556 228.415 51.5333C230.015 52.5111 231.792 53 233.748 53ZM260.539 17.2667C259.117 17.2667 257.939 16.8444 257.006 16C256.117 15.1111 255.672 14 255.672 12.6667C255.672 11.3333 256.117 10.2222 257.006 9.33333C257.939 8.44444 259.117 8 260.539 8C261.917 8 263.05 8.42222 263.939 9.26667C264.872 10.1111 265.339 11.1778 265.339 12.4667C265.339 13.8444 264.872 15 263.939 15.9333C263.05 16.8222 261.917 17.2667 260.539 17.2667ZM264.206 23.5333V59H256.806V23.5333H264.206ZM282.697 59.4C279.897 59.4 277.208 59.0222 274.63 58.2667C272.052 57.4667 270.008 56.4667 268.497 55.2667L271.03 49.6667C272.541 50.7778 274.364 51.6889 276.497 52.4C278.63 53.1111 280.786 53.4667 282.964 53.4667C288.03 53.4667 290.564 51.9556 290.564 48.9333C290.564 47.9556 290.208 47.1778 289.497 46.6C288.83 46.0222 287.964 45.6 286.897 45.3333C285.875 45.0222 284.408 44.6889 282.497 44.3333C279.786 43.8889 277.541 43.3778 275.764 42.8C274.03 42.2222 272.541 41.2444 271.297 39.8667C270.052 38.4444 269.43 36.4667 269.43 33.9333C269.43 31.8444 269.986 29.9778 271.097 28.3333C272.252 26.6889 273.919 25.4 276.097 24.4667C278.319 23.5333 280.964 23.0667 284.03 23.0667C286.297 23.0667 288.564 23.3778 290.83 24C293.097 24.5778 294.986 25.3778 296.497 26.4L293.83 31.9333C290.986 30.0222 287.697 29.0667 283.964 29.0667C281.475 29.0667 279.608 29.4889 278.364 30.3333C277.119 31.1778 276.497 32.2667 276.497 33.6C276.497 35.1111 277.164 36.1778 278.497 36.8C279.875 37.4222 281.986 37.9778 284.83 38.4667C287.541 39 289.741 39.5556 291.43 40.1333C293.119 40.7111 294.564 41.6889 295.764 43.0667C297.008 44.4 297.63 46.2889 297.63 48.7333C297.63 51.9333 296.297 54.5111 293.63 56.4667C291.008 58.4222 287.364 59.4 282.697 59.4Z" fill="white"/>
</svg>
