<svg width="16" height="16" viewBox="0 0 16 16" fill="none" xmlns="http://www.w3.org/2000/svg">
<path d="M10.6667 12C10.8435 12 11.0131 11.9297 11.1381 11.8047C11.2631 11.6797 11.3333 11.5101 11.3333 11.3333C11.3333 11.1565 11.2631 10.9869 11.1381 10.8619C11.0131 10.7369 10.8435 10.6666 10.6667 10.6666V12ZM5.33334 10.6666C5.15652 10.6666 4.98696 10.7369 4.86193 10.8619C4.73691 10.9869 4.66667 11.1565 4.66667 11.3333C4.66667 11.5101 4.73691 11.6797 4.86193 11.8047C4.98696 11.9297 5.15652 12 5.33334 12V10.6666ZM5.80467 4.86198C5.74317 4.79831 5.66961 4.74752 5.58827 4.71258C5.50694 4.67764 5.41946 4.65925 5.33094 4.65848C5.24242 4.65771 5.15463 4.67458 5.0727 4.7081C4.99077 4.74162 4.91633 4.79112 4.85374 4.85372C4.79114 4.91631 4.74164 4.99075 4.70812 5.07268C4.6746 5.15461 4.65773 5.24239 4.6585 5.33091C4.65927 5.41943 4.67766 5.50691 4.7126 5.58825C4.74754 5.66959 4.79833 5.74315 4.862 5.80465L5.80467 4.86198ZM7.33334 7.33331L7.80467 7.80465C7.92965 7.67963 7.99986 7.51009 7.99986 7.33331C7.99986 7.15654 7.92965 6.987 7.80467 6.86198L7.33334 7.33331ZM4.862 8.86198C4.79833 8.92348 4.74754 8.99704 4.7126 9.07838C4.67766 9.15971 4.65927 9.24719 4.6585 9.33571C4.65773 9.42423 4.6746 9.51202 4.70812 9.59395C4.74164 9.67588 4.79114 9.75031 4.85374 9.81291C4.91633 9.8755 4.99077 9.92501 5.0727 9.95853C5.15463 9.99205 5.24242 10.0089 5.33094 10.0081C5.41946 10.0074 5.50694 9.98899 5.58827 9.95405C5.66961 9.91911 5.74317 9.86832 5.80467 9.80465L4.862 8.86198ZM4.66667 2.66665H11.3333V1.33331H4.66667V2.66665ZM13.3333 4.66665V11.3333H14.6667V4.66665H13.3333ZM11.3333 13.3333H4.66667V14.6666H11.3333V13.3333ZM2.66667 11.3333V4.66665H1.33334V11.3333H2.66667ZM4.66667 13.3333C4.13624 13.3333 3.62753 13.1226 3.25246 12.7475C2.87738 12.3725 2.66667 11.8637 2.66667 11.3333H1.33334C1.33334 12.2174 1.68453 13.0652 2.30965 13.6903C2.93477 14.3155 3.78261 14.6666 4.66667 14.6666V13.3333ZM13.3333 11.3333C13.3333 11.8637 13.1226 12.3725 12.7476 12.7475C12.3725 13.1226 11.8638 13.3333 11.3333 13.3333V14.6666C12.2174 14.6666 13.0652 14.3155 13.6904 13.6903C14.3155 13.0652 14.6667 12.2174 14.6667 11.3333H13.3333ZM11.3333 2.66665C11.8638 2.66665 12.3725 2.87736 12.7476 3.25243C13.1226 3.62751 13.3333 4.13621 13.3333 4.66665H14.6667C14.6667 3.78259 14.3155 2.93475 13.6904 2.30962C13.0652 1.6845 12.2174 1.33331 11.3333 1.33331V2.66665ZM4.66667 1.33331C3.78261 1.33331 2.93477 1.6845 2.30965 2.30962C1.68453 2.93475 1.33334 3.78259 1.33334 4.66665H2.66667C2.66667 4.13621 2.87738 3.62751 3.25246 3.25243C3.62753 2.87736 4.13624 2.66665 4.66667 2.66665V1.33331ZM10.6667 10.6666H5.33334V12H10.6667V10.6666ZM4.862 5.80465L6.862 7.80465L7.80467 6.86198L5.80467 4.86198L4.862 5.80465ZM6.862 6.86198L4.862 8.86198L5.80467 9.80465L7.80467 7.80465L6.862 6.86198Z" fill="white"/>
</svg>
