<svg width="16" height="16" viewBox="0 0 16 16" fill="none" xmlns="http://www.w3.org/2000/svg">
<path d="M7.99737 1.5C4.13331 1.5 1 3.98589 1 7.05358C1 9.03699 2.30905 10.7745 4.28051 11.7609L3.57078 14.3129C3.57078 14.3129 3.55764 14.4319 3.63387 14.4769C3.7101 14.5218 3.8021 14.4874 3.8021 14.4874C4.02291 14.4557 6.35186 12.8081 6.75929 12.5225C7.16147 12.5807 7.57942 12.6098 8.00263 12.6098C11.8667 12.6098 15 10.1239 15 7.05622C15 3.98853 11.8614 1.5 7.99737 1.5Z" fill="#392020"/>
<path d="M4.12806 8.98932C3.90462 8.98932 3.72325 8.81478 3.72325 8.60057V6.18609H3.09238C2.87421 6.18609 2.69809 6.0089 2.69809 5.7894C2.69809 5.56991 2.87684 5.39272 3.09238 5.39272H5.1611C5.37928 5.39272 5.55539 5.56991 5.55539 5.7894C5.55539 6.0089 5.37665 6.18609 5.1611 6.18609H4.53023V8.60057C4.53023 8.81214 4.34623 8.98932 4.12543 8.98932H4.12806ZM7.6688 8.98403C7.50057 8.98403 7.37177 8.91527 7.33234 8.8042L7.13256 8.27529H5.90237L5.7026 8.8042C5.66317 8.91527 5.53436 8.98403 5.36613 8.98403C5.27676 8.98403 5.19002 8.96552 5.10853 8.93114C4.99813 8.87825 4.89035 8.73809 5.0139 8.35463L5.9786 5.79734C6.04694 5.60164 6.2546 5.40065 6.51747 5.39537C6.78033 5.39008 6.99062 5.60164 7.05633 5.79734L8.02103 8.35463C8.14458 8.73809 8.0368 8.88354 7.9264 8.93114C7.84754 8.96816 7.75817 8.98403 7.6688 8.98403ZM6.91964 7.55597L6.51747 6.40294L6.11529 7.55597H6.91964ZM8.6703 8.93114C8.46001 8.93114 8.28389 8.76453 8.28389 8.5609V5.79734C8.28389 5.57255 8.4679 5.39008 8.69659 5.39008C8.92528 5.39008 9.10928 5.57519 9.10928 5.79734V8.18273H9.96621C10.1765 8.18273 10.3526 8.34934 10.3526 8.55297C10.3526 8.7566 10.1791 8.92321 9.96621 8.92321L8.6703 8.93114ZM10.5077 8.57677V5.79998C10.5077 5.5752 10.6917 5.39272 10.9125 5.39272C11.1333 5.39272 11.3173 5.57784 11.3173 5.79998V6.67269L12.4476 5.53553C12.572 5.41035 12.8073 5.42132 12.9497 5.56462C13.0835 5.69922 13.1183 5.92674 12.9786 6.06973L12.0533 6.99532L13.0469 8.3176C13.1805 8.48954 13.1481 8.75734 12.9681 8.88354C12.7907 9.01577 12.53 8.97169 12.4029 8.8042L11.4566 7.54275L11.3173 7.68291V8.56884C11.3173 9.09653 10.5077 9.11686 10.5077 8.57677Z" fill="#FEE500"/>
</svg>
